<svg width="135" height="30" viewBox="0 0 135 30" fill="none" xmlns="http://www.w3.org/2000/svg">
<path fill-rule="evenodd" clip-rule="evenodd" d="M120.625 6.19991C118.355 6.20268 116.183 7.11722 114.597 8.73716C113.816 9.54331 113.191 10.4859 112.753 11.5179C111.845 13.7188 111.845 16.1887 112.753 18.3895C113.192 19.4392 113.817 20.4016 114.597 21.231C115.371 22.0457 116.299 22.699 117.328 23.1529C119.424 24.0963 121.826 24.0963 123.922 23.1529C124.952 22.7 125.881 22.0467 126.656 21.231C127.435 20.4016 128.058 19.4391 128.496 18.3895C128.949 17.3155 129.181 16.1615 129.178 14.9961C129.117 12.735 128.232 10.5736 126.689 8.91653C125.122 7.26051 122.965 6.28494 120.684 6.19992L120.625 6.19991ZM120.684 0.000119749C122.583 -0.00809275 124.46 0.406207 126.179 1.21299C127.886 2.00301 129.428 3.10773 130.724 4.46907C132.047 5.85561 133.104 7.47214 133.843 9.23867C134.619 11.0811 135.012 13.0612 135 15.0596C135.015 17.0467 134.632 19.0168 133.873 20.8543C133.148 22.6043 132.111 24.2093 130.814 25.5922C129.528 26.9565 127.984 28.0525 126.27 28.8165C124.495 29.611 122.57 30.0145 120.625 29.9996C116.802 30.0197 113.135 28.4875 110.467 25.755C109.144 24.3863 108.095 22.778 107.376 21.0164C106.611 19.125 106.229 17.1012 106.251 15.0617C106.233 13.0786 106.607 11.1114 107.352 9.27248C108.052 7.51747 109.089 5.91614 110.406 4.55876C111.727 3.20914 113.288 2.11729 115.01 1.33924C116.796 0.527595 118.724 0.0727073 120.684 0.000132249L120.684 0.000119749Z" fill="#0A8920"/>
<path fill-rule="evenodd" clip-rule="evenodd" d="M42.7931 16.4343C42.8109 18.1302 42.127 19.762 40.8949 20.9639C39.6627 22.1658 37.9854 22.8372 36.239 22.8275C34.2268 22.873 32.3112 21.9907 31.0742 20.4487C30.7172 20.0283 30.4257 19.5592 30.2092 19.0564C30.141 18.8847 30.0826 18.7094 30.0344 18.5313C30.0078 18.4564 29.9825 18.3802 29.9614 18.3013C29.947 18.2555 29.9334 18.2038 29.9197 18.1521C29.764 17.5913 29.6848 17.0131 29.6842 16.4323C29.6842 16.3362 29.6938 16.2433 29.6951 16.1512C29.689 15.9185 29.6842 15.6831 29.6842 15.4604V3.05113C29.6878 2.26488 29.3637 1.51065 28.7857 0.96005C28.2595 0.396613 27.5287 0.0534125 26.7471 0.0026875C25.9397 0.0277375 25.1752 0.361313 24.6198 0.930875C24.0572 1.47688 23.7447 2.2198 23.7527 2.99211V15.9351C23.7135 17.8364 24.1033 19.723 24.8949 21.4624C24.94 21.5526 24.9939 21.6394 25.0314 21.7276C25.1755 22.0187 25.3196 22.3064 25.482 22.5895C25.564 22.7334 25.6514 22.8746 25.7387 23.0185C25.8364 23.1796 25.9395 23.3274 26.0439 23.4825C26.9368 24.7048 28.0464 25.7631 29.321 26.6079C29.3742 26.6424 29.4248 26.6782 29.476 26.7133C30.3857 27.3116 31.3746 27.7878 32.4158 28.1288C33.3788 28.4069 34.3657 28.6002 35.3644 28.7062C35.5133 28.7182 35.6587 28.7261 35.8075 28.7288C35.9564 28.7314 36.0915 28.75 36.2342 28.75C36.2868 28.75 36.3373 28.746 36.3885 28.7434C36.7463 28.7434 37.0972 28.7281 37.4481 28.6917C37.8441 28.6499 38.2305 28.5989 38.6026 28.5252C38.6214 28.5202 38.6406 28.5166 38.6599 28.5146C39.489 28.3462 40.2986 28.0976 41.0768 27.7728C42.3187 27.2404 43.4606 26.5109 44.4556 25.614C45.3862 24.7323 46.1991 23.7404 46.8751 22.6617L46.9134 22.6021C47.0417 22.3872 47.1564 22.1519 47.2738 21.9232C47.3667 21.7455 47.4691 21.5884 47.5531 21.4027C48.3483 19.6844 48.7563 17.8209 48.75 15.937V2.98876C48.7571 2.21679 48.4447 1.47435 47.8828 0.928187C47.3276 0.358663 46.5633 0.025075 45.7562 0C44.9741 0.050275 44.243 0.394662 43.7182 0.960013C43.1387 1.50979 42.8135 2.26431 42.8171 3.05109V15.4616" fill="#0A8920"/>
<path fill-rule="evenodd" clip-rule="evenodd" d="M81.8703 10.0323C81.8703 4.29069 78.5932 0.0054625 73.1583 0.0054625C70.7403 0.122212 68.4828 1.25837 66.9386 3.13569L65.9392 4.61524L64.885 3.02455C63.5464 1.55591 61.4901 0 58.9368 0C53.053 0 50 4.43455 50 10.0323V26.2323C50 28.1202 51.1761 29.6557 52.9683 29.6557C54.7606 29.6557 56.0084 28.1202 56.0084 26.2323C56.0084 26.1825 56.0044 26.1355 56.0044 26.0843V9.36546C55.9972 8.48286 56.3435 7.63456 56.965 7.01217C57.5865 6.38979 58.4308 6.04583 59.3072 6.05796C61.171 6.02666 62.7231 7.49059 62.8138 9.36546V23.0645H62.8179V26.0864H62.8273C62.8212 26.1359 62.8181 26.1858 62.8179 26.2357C62.7464 28.0473 64.1413 29.5769 65.9399 29.6591C67.738 29.5765 69.1322 28.0468 69.0599 26.2357C69.0599 26.1839 69.0531 26.1375 69.0531 26.0789V9.40909C69.0765 7.53667 70.6014 6.03711 72.4609 6.05795C73.3533 6.04296 74.2143 6.38934 74.8507 7.01937C75.4872 7.6494 75.8459 8.51035 75.8463 9.40909V26.0836H75.8517C75.8517 26.1355 75.8463 26.1832 75.8463 26.233C75.8463 28.1209 77.1328 29.6564 78.9216 29.6564C80.7105 29.6564 81.8757 28.1209 81.8757 26.233C81.8757 26.1812 81.8703 26.1348 81.8703 26.0761" fill="#0A8920"/>
<path fill-rule="evenodd" clip-rule="evenodd" d="M106.248 21.9091C106.214 18.5693 104.175 15.5934 101.114 14.416L101.198 14.3698C103.726 13.0999 105.294 10.4398 105.21 7.56496C105.254 5.53055 104.475 3.56748 103.058 2.13716C101.64 0.70685 99.7082 -0.0645623 97.7163 0.00423774H88.2388C86.5214 0.0760252 85.129 1.44989 85 3.19988C85.0017 3.21986 85.0017 3.23995 85 3.25994V26.4668C85 26.4813 85 26.5876 85 26.609C85.054 28.4015 86.4231 29.864 88.1745 30L97.4905 29.9793C97.6676 29.9917 97.8448 30 98.0253 30C98.2437 30 98.4601 29.9883 98.6758 29.9717C99.284 29.9523 99.8861 29.8407 100.462 29.6403C103.855 28.6544 106.209 25.5093 106.25 21.9084L106.248 21.9091ZM96.3883 5.82175C97.2206 5.73632 98.0497 6.01256 98.6724 6.58279C99.2951 7.15303 99.6539 7.96456 99.6609 8.81857C99.6904 9.70101 99.3525 10.5549 98.7308 11.1687C98.1092 11.7825 97.262 12.0987 96.3992 12.0391L90.8994 12.048L90.8906 5.83004L96.3883 5.82175ZM90.8934 18.0266L97.1139 18.0169C98.7277 18.0835 100.003 19.437 100.006 21.0861C100.009 22.7351 98.739 24.0936 97.1254 24.1665L90.8981 24.1762L90.8934 18.0266Z" fill="#0A8920"/>
<path fill-rule="evenodd" clip-rule="evenodd" d="M22.4832 19.0873V4.64609C22.5266 3.97246 22.4857 3.29612 22.3614 2.63235C22.1304 1.76509 21.5798 1.0137 20.817 0.524761C20.2304 0.162549 19.5478 -0.0195386 18.8559 0.00166144H9.02789C8.24596 0.00186144 7.49538 0.304711 6.93791 0.844974C6.27634 1.50902 5.94546 2.42662 6.03346 3.35309C6.12147 4.27956 6.61942 5.12071 7.39456 5.65227C8.23172 6.08266 9.18219 6.25119 10.1191 6.13535H16.4458C16.4812 6.56736 16.4894 7.00112 16.4703 7.43414V18.0735C16.4703 18.3924 16.4787 18.7167 16.4766 19.0397V19.0839C16.5199 21.981 14.1764 24.3666 11.2362 24.4184C8.36193 24.3685 6.04933 22.0749 6.01756 19.2426C6.01756 19.2115 6.02176 19.1784 6.02176 19.1453C6.02176 19.099 6.01756 19.0549 6.01476 19.0073V18.9921C5.96233 17.3874 4.64133 16.1056 3.01214 16.0784C1.32053 16.1068 -0.0276565 17.4806 0.000431018 19.1473C0.000918518 19.3025 0.0140435 19.4573 0.039656 19.6104C0.403868 25.8856 5.09583 30 11.5017 30C22.7291 30 22.5161 17.8196 22.4853 19.088" fill="#0A8920"/>
</svg>
